<svg xmlns="http://www.w3.org/2000/svg" width="40px" height="40px" viewBox="0 0 40 40" version="1.1">
    <g id="surface1">
        <rect x="0" y="0" width="40" height="40" style="fill:rgb(2.352941%,16.862745%,30.980392%);fill-opacity:1;stroke:none;"/>
        <path style="fill:none;stroke-width:0.25;stroke-linecap:butt;stroke-linejoin:miter;stroke:rgb(2.352941%,16.862745%,30.980392%);stroke-opacity:1;stroke-miterlimit:4;" d="M 0 0 L 512 0 L 512 512 L 0 512 Z M 0 0 " transform="matrix(0.078125,0,0,0.078125,0,0)"/>
        <path style="fill-rule:nonzero;fill:rgb(91.764706%,94.509804%,89.411765%);fill-opacity:1;stroke-width:0.25;stroke-linecap:butt;stroke-linejoin:miter;stroke:rgb(91.764706%,94.509804%,89.411765%);stroke-opacity:1;stroke-miterlimit:4;" d="M 317.9 157.75 C 322.55 156.85 327.25 155.6 332.05 155.6 C 336.25 157.35 340.35 159.55 344.3 161.9 C 345.65 165 347 168.1 348.45 171.1 C 344.7 172.35 341.85 168.6 338.5 167.55 C 327.55 163.5 315.7 163.7 304.25 162 L 304 161.1 C 308.5 159.5 313.25 158.85 317.9 157.75 Z M 317.9 157.75 " transform="matrix(0.078125,0,0,0.078125,0,0)"/>
        <path style="fill-rule:nonzero;fill:rgb(85.882353%,87.45098%,75.686275%);fill-opacity:1;stroke-width:0.25;stroke-linecap:butt;stroke-linejoin:miter;stroke:rgb(85.882353%,87.45098%,75.686275%);stroke-opacity:1;stroke-miterlimit:4;" d="M 300.55 161.6 C 301.65 161.3 302.8 161.15 304 161.1 L 304.25 162 C 301.8 163.2 299.15 164.8 298.8 167.85 C 297.1 172.05 300.8 176.6 305.15 176.5 C 302.4 177.2 299.3 177.1 296.85 178.85 C 293.55 181.25 290.2 183.95 286.1 184.8 C 285.3 184.2 284.5 183.55 283.75 182.85 C 288.8 175.4 294.85 168.55 300.55 161.6 Z M 300.55 161.6 " transform="matrix(0.078125,0,0,0.078125,0,0)"/>
        <path style="fill-rule:nonzero;fill:rgb(86.27451%,82.745098%,64.705882%);fill-opacity:1;stroke-width:0.25;stroke-linecap:butt;stroke-linejoin:miter;stroke:rgb(86.27451%,82.745098%,64.705882%);stroke-opacity:1;stroke-miterlimit:4;" d="M 304.25 162 C 315.7 163.7 327.55 163.5 338.5 167.55 C 341.85 168.6 344.7 172.35 348.45 171.1 C 349 172.15 349.65 173.15 350.3 174.15 L 349.9 174.95 L 349.15 175.3 C 345.15 174.25 340.5 174.35 337.4 171.25 C 335.5 169.6 333.8 167 330.95 167.1 C 328.65 166.8 327.05 168.65 325.5 170 C 323.55 171.85 321.05 172.95 318.45 173.45 C 313.95 174.3 309.55 175.45 305.15 176.5 C 300.8 176.6 297.1 172.05 298.8 167.85 C 299.15 164.8 301.8 163.2 304.25 162 Z M 304.25 162 " transform="matrix(0.078125,0,0,0.078125,0,0)"/>
        <path style="fill-rule:nonzero;fill:rgb(86.27451%,76.862745%,52.156863%);fill-opacity:1;stroke-width:0.25;stroke-linecap:butt;stroke-linejoin:miter;stroke:rgb(86.27451%,76.862745%,52.156863%);stroke-opacity:1;stroke-miterlimit:4;" d="M 344.3 161.9 C 347.9 163.9 351.45 166 354.95 168.2 C 353.2 170 351.65 172 350.3 174.15 C 349.65 173.15 349 172.15 348.45 171.1 C 347 168.1 345.65 165 344.3 161.9 Z M 344.3 161.9 " transform="matrix(0.078125,0,0,0.078125,0,0)"/>
        <path style="fill-rule:nonzero;fill:rgb(3.529412%,20.784314%,33.72549%);fill-opacity:1;stroke-width:0.25;stroke-linecap:butt;stroke-linejoin:miter;stroke:rgb(3.529412%,20.784314%,33.72549%);stroke-opacity:1;stroke-miterlimit:4;" d="M 325.5 170 C 327.05 168.65 328.65 166.8 330.95 167.1 C 333.8 167 335.5 169.6 337.4 171.25 C 337 175.75 330.9 178.7 327.3 175.7 C 325.4 174.45 325.7 171.95 325.5 170 Z M 325.5 170 " transform="matrix(0.078125,0,0,0.078125,0,0)"/>
        <path style="fill-rule:nonzero;fill:rgb(17.647059%,47.058824%,59.607843%);fill-opacity:1;stroke-width:0.25;stroke-linecap:butt;stroke-linejoin:miter;stroke:rgb(17.647059%,47.058824%,59.607843%);stroke-opacity:1;stroke-miterlimit:4;" d="M 354.95 168.2 C 361.9 168 368.8 168.85 375.75 169.35 C 376.25 171.15 374.25 170.7 373.15 170.95 C 365.2 171.2 357.85 175.75 349.9 174.95 L 350.3 174.15 C 351.65 172 353.2 170 354.95 168.2 Z M 354.95 168.2 " transform="matrix(0.078125,0,0,0.078125,0,0)"/>
        <path style="fill-rule:nonzero;fill:rgb(87.45098%,91.372549%,83.921569%);fill-opacity:1;stroke-width:0.25;stroke-linecap:butt;stroke-linejoin:miter;stroke:rgb(87.45098%,91.372549%,83.921569%);stroke-opacity:1;stroke-miterlimit:4;" d="M 318.45 173.45 C 321.05 172.95 323.55 171.85 325.5 170 C 325.7 171.95 325.4 174.45 327.3 175.7 C 330.9 178.7 337 175.75 337.4 171.25 C 340.5 174.35 345.15 174.25 349.15 175.3 C 346.75 176.95 344.15 178.35 341.8 180.1 C 345.3 180.5 348.75 180.6 352.2 181.1 C 342.8 189.35 332.75 196.9 322.95 204.7 C 319.15 208.5 313.8 210.6 310.8 215.15 C 311.85 216.1 313.3 215.75 314.55 215.55 C 321.85 214 329.15 212.55 336.35 210.65 L 337.25 210.95 C 337.75 213.6 336.3 215.95 335 218.1 C 327.8 229.6 321.3 241.6 314.05 253.1 C 313.4 253.75 312.7 254.35 312 255 C 310.1 244.35 308.65 233.65 307.65 222.85 C 307.45 221.45 307.05 220.1 306.75 218.7 C 305.85 209.9 304.2 201.2 302.35 192.6 C 301.3 188.1 301.3 183.45 300.05 179 C 296.55 181.05 293.85 184.15 290.6 186.6 C 286.1 190.4 281.2 194.35 278.95 200.05 C 277.35 203.55 276.1 207.5 273 210.05 C 269 212.55 263.95 212.6 259.8 214.9 C 255.5 217.55 250.35 216.1 245.75 215.1 C 248.15 212.4 251.05 210.1 254.35 208.6 C 254.2 210.3 253.25 211.7 252.4 213.2 C 258.1 212 263.8 210.85 269.45 209.5 C 270.8 209 272.65 208.85 273.35 207.35 C 274.9 204.15 275.7 200.65 276.45 197.2 C 276.95 195.65 275.9 194.2 275.25 192.9 C 278.35 189.75 280.75 186.05 283.75 182.85 C 284.5 183.55 285.3 184.2 286.1 184.8 C 290.2 183.95 293.55 181.25 296.85 178.85 C 299.3 177.1 302.4 177.2 305.15 176.5 C 309.55 175.45 313.95 174.3 318.45 173.45 Z M 318.45 173.45 " transform="matrix(0.078125,0,0,0.078125,0,0)"/>
        <path style="fill-rule:nonzero;fill:rgb(9.019608%,31.764706%,46.27451%);fill-opacity:1;stroke-width:0.25;stroke-linecap:butt;stroke-linejoin:miter;stroke:rgb(9.019608%,31.764706%,46.27451%);stroke-opacity:1;stroke-miterlimit:4;" d="M 349.9 174.95 C 357.85 175.75 365.2 171.2 373.15 170.95 C 367.9 176.5 358.8 176.75 354.05 182.8 C 354 181.65 353.35 181.1 352.2 181.1 C 348.75 180.6 345.3 180.5 341.8 180.1 C 344.15 178.35 346.75 176.95 349.15 175.3 Z M 349.9 174.95 " transform="matrix(0.078125,0,0,0.078125,0,0)"/>
        <path style="fill-rule:nonzero;fill:rgb(92.941176%,95.294118%,90.196078%);fill-opacity:1;stroke-width:0.25;stroke-linecap:butt;stroke-linejoin:miter;stroke:rgb(92.941176%,95.294118%,90.196078%);stroke-opacity:1;stroke-miterlimit:4;" d="M 290.6 186.6 C 293.85 184.15 296.55 181.05 300.05 179 C 301.3 183.45 301.3 188.1 302.35 192.6 C 304.2 201.2 305.85 209.9 306.75 218.7 C 305.5 224.15 304.45 229.7 303.25 235.25 C 297.5 235.85 291.9 237.15 286.25 238.35 C 268.3 242 250.3 245.45 232.45 249.35 C 221.05 251.15 209.45 255.5 197.9 252.3 C 212.75 240 228.55 228.85 243.25 216.35 C 244 215.7 244.8 215.25 245.75 215.1 C 250.35 216.1 255.5 217.55 259.8 214.9 C 263.95 212.6 269 212.55 273 210.05 C 276.1 207.5 277.35 203.55 278.95 200.05 C 281.2 194.35 286.1 190.4 290.6 186.6 Z M 290.6 186.6 " transform="matrix(0.078125,0,0,0.078125,0,0)"/>
        <path style="fill-rule:nonzero;fill:rgb(49.411765%,53.72549%,47.058824%);fill-opacity:1;stroke-width:0.25;stroke-linecap:butt;stroke-linejoin:miter;stroke:rgb(49.411765%,53.72549%,47.058824%);stroke-opacity:1;stroke-miterlimit:4;" d="M 352.2 181.1 C 353.35 181.1 354 181.65 354.05 182.8 C 351.45 193.15 348.9 203.6 345.85 213.9 C 343 212.85 340.15 211.9 337.25 210.95 L 336.35 210.65 C 331.85 208.75 326.7 208 322.95 204.7 C 332.75 196.9 342.8 189.35 352.2 181.1 Z M 352.2 181.1 " transform="matrix(0.078125,0,0,0.078125,0,0)"/>
        <path style="fill-rule:nonzero;fill:rgb(37.647059%,68.235294%,77.647059%);fill-opacity:1;stroke-width:0.25;stroke-linecap:butt;stroke-linejoin:miter;stroke:rgb(37.647059%,68.235294%,77.647059%);stroke-opacity:1;stroke-miterlimit:4;" d="M 148.05 183.95 C 150.7 184.65 152.8 186.45 155.05 187.9 C 168.25 196.2 182.35 203.15 197.15 208.1 C 197.3 208.55 197.5 209.45 197.65 209.95 C 194.45 209.35 191.45 208.05 188.2 207.7 C 181.9 212.4 177.25 219.05 170.6 223.35 C 170.55 224.4 170.6 225.45 170.5 226.5 C 170.1 226.5 169.35 226.4 169 226.35 C 160.2 213.25 152.5 199.15 148.05 183.95 Z M 148.05 183.95 " transform="matrix(0.078125,0,0,0.078125,0,0)"/>
        <path style="fill-rule:nonzero;fill:rgb(87.45098%,88.235294%,76.078431%);fill-opacity:1;stroke-width:0.25;stroke-linecap:butt;stroke-linejoin:miter;stroke:rgb(87.45098%,88.235294%,76.078431%);stroke-opacity:1;stroke-miterlimit:4;" d="M 262.7 201.75 C 266.9 198.85 270.7 195.25 275.25 192.9 C 275.9 194.2 276.95 195.65 276.45 197.2 C 275.7 200.65 274.9 204.15 273.35 207.35 C 272.65 208.85 270.8 209 269.45 209.5 C 263.8 210.85 258.1 212 252.4 213.2 C 253.25 211.7 254.2 210.3 254.35 208.6 C 256.6 205.75 260 204.1 262.7 201.75 Z M 262.7 201.75 " transform="matrix(0.078125,0,0,0.078125,0,0)"/>
        <path style="fill-rule:nonzero;fill:rgb(83.137255%,85.882353%,76.470588%);fill-opacity:1;stroke-width:0.25;stroke-linecap:butt;stroke-linejoin:miter;stroke:rgb(83.137255%,85.882353%,76.470588%);stroke-opacity:1;stroke-miterlimit:4;" d="M 310.8 215.15 C 313.8 210.6 319.15 208.5 322.95 204.7 C 326.7 208 331.85 208.75 336.35 210.65 C 329.15 212.55 321.85 214 314.55 215.55 C 313.3 215.75 311.85 216.1 310.8 215.15 Z M 310.8 215.15 " transform="matrix(0.078125,0,0,0.078125,0,0)"/>
        <path style="fill-rule:nonzero;fill:rgb(31.764706%,62.745098%,72.941176%);fill-opacity:1;stroke-width:0.25;stroke-linecap:butt;stroke-linejoin:miter;stroke:rgb(31.764706%,62.745098%,72.941176%);stroke-opacity:1;stroke-miterlimit:4;" d="M 188.2 207.7 C 191.45 208.05 194.45 209.35 197.65 209.95 C 197.5 209.45 197.3 208.55 197.15 208.1 C 204.55 210.4 212.2 211.75 219.5 214.2 C 216.85 214.95 214.1 214.5 211.35 214.7 C 210.6 216.4 210.15 218.25 209.4 219.95 C 207.6 220.3 205.75 220.4 204.05 221.05 C 201.1 224.1 200 228.95 195.9 230.85 C 190.8 233.45 185.95 236.6 181.35 240.05 C 181.45 241.85 181.95 243.6 182.45 245.3 C 179.7 243.05 177.9 239.95 175.95 237.05 C 173.6 233.5 171.05 230.1 169 226.35 C 169.35 226.4 170.1 226.5 170.5 226.5 C 170.6 225.45 170.55 224.4 170.6 223.35 C 177.25 219.05 181.9 212.4 188.2 207.7 Z M 188.2 207.7 " transform="matrix(0.078125,0,0,0.078125,0,0)"/>
        <path style="fill-rule:nonzero;fill:rgb(89.803922%,78.039216%,49.411765%);fill-opacity:1;stroke-width:0.25;stroke-linecap:butt;stroke-linejoin:miter;stroke:rgb(89.803922%,78.039216%,49.411765%);stroke-opacity:1;stroke-miterlimit:4;" d="M 337.25 210.95 C 340.15 211.9 343 212.85 345.85 213.9 C 346.55 219.55 346 225.3 345.8 231 C 345.65 244.65 341.8 257.9 337.8 270.8 C 336.95 273.65 334.25 275.35 331.95 276.9 C 322.65 282 314.45 288.85 305.75 294.85 C 305.6 287.8 308.05 281.15 309.1 274.25 C 310.6 267.15 311.6 259.9 314.05 253.1 C 321.3 241.6 327.8 229.6 335 218.1 C 336.3 215.95 337.75 213.6 337.25 210.95 Z M 337.25 210.95 " transform="matrix(0.078125,0,0,0.078125,0,0)"/>
        <path style="fill-rule:nonzero;fill:rgb(28.627451%,59.215686%,70.196078%);fill-opacity:1;stroke-width:0.25;stroke-linecap:butt;stroke-linejoin:miter;stroke:rgb(28.627451%,59.215686%,70.196078%);stroke-opacity:1;stroke-miterlimit:4;" d="M 211.35 214.7 C 214.1 214.5 216.85 214.95 219.5 214.2 C 222.05 213.8 224.5 214.5 227 214.8 C 232.4 215.7 237.85 215.7 243.25 216.35 C 228.55 228.85 212.75 240 197.9 252.3 C 197.6 252.65 196.95 253.35 196.6 253.7 C 195.8 257.5 196.8 261.35 196.5 265.2 C 192.6 261.4 189.95 256.6 186.7 252.3 C 185.15 250.05 183.1 248.05 182.45 245.3 C 181.95 243.6 181.45 241.85 181.35 240.05 C 185.95 236.6 190.8 233.45 195.9 230.85 C 200 228.95 201.1 224.1 204.05 221.05 C 205.75 220.4 207.6 220.3 209.4 219.95 C 210.15 218.25 210.6 216.4 211.35 214.7 Z M 211.35 214.7 " transform="matrix(0.078125,0,0,0.078125,0,0)"/>
        <path style="fill-rule:nonzero;fill:rgb(36.078431%,52.54902%,57.647059%);fill-opacity:1;stroke-width:0.25;stroke-linecap:butt;stroke-linejoin:miter;stroke:rgb(36.078431%,52.54902%,57.647059%);stroke-opacity:1;stroke-miterlimit:4;" d="M 306.75 218.7 C 307.05 220.1 307.45 221.45 307.65 222.85 C 308.65 233.65 310.1 244.35 312 255 C 307.6 258.8 302.4 261.5 297.3 264.25 C 297.35 262.75 297.4 261.3 297.45 259.85 C 300.2 251.85 301.55 243.45 303.25 235.25 C 304.45 229.7 305.5 224.15 306.75 218.7 Z M 306.75 218.7 " transform="matrix(0.078125,0,0,0.078125,0,0)"/>
        <path style="fill-rule:nonzero;fill:rgb(72.941176%,87.843137%,90.196078%);fill-opacity:1;stroke-width:0.25;stroke-linecap:butt;stroke-linejoin:miter;stroke:rgb(72.941176%,87.843137%,90.196078%);stroke-opacity:1;stroke-miterlimit:4;" d="M 286.25 238.35 C 291.9 237.15 297.5 235.85 303.25 235.25 C 301.55 243.45 300.2 251.85 297.45 259.85 C 283.75 258.8 270.1 257.9 256.4 257.3 C 236.5 255.55 216.55 254.55 196.6 253.7 C 196.95 253.35 197.6 252.65 197.9 252.3 C 209.45 255.5 221.05 251.15 232.45 249.35 C 250.3 245.45 268.3 242 286.25 238.35 Z M 286.25 238.35 " transform="matrix(0.078125,0,0,0.078125,0,0)"/>
        <path style="fill-rule:nonzero;fill:rgb(81.960784%,83.137255%,70.588235%);fill-opacity:1;stroke-width:0.25;stroke-linecap:butt;stroke-linejoin:miter;stroke:rgb(81.960784%,83.137255%,70.588235%);stroke-opacity:1;stroke-miterlimit:4;" d="M 312 255 C 312.7 254.35 313.4 253.75 314.05 253.1 C 311.6 259.9 310.6 267.15 309.1 274.25 C 308.05 281.15 305.6 287.8 305.75 294.85 C 291.1 303.75 275.2 310.45 260.85 319.9 C 259.6 320.45 258.35 321 257.15 321.6 C 255.65 322.25 254.1 322.8 252.5 323.2 C 255.25 317.35 259.15 312.1 262.7 306.75 C 268.95 297.6 275.15 288.4 281.4 279.3 C 282.9 277.05 284.15 274.6 285.25 272.1 C 289.15 269.3 293.2 266.7 297.3 264.25 C 302.4 261.5 307.6 258.8 312 255 Z M 312 255 " transform="matrix(0.078125,0,0,0.078125,0,0)"/>
        <path style="fill-rule:nonzero;fill:rgb(19.607843%,49.411765%,61.176471%);fill-opacity:1;stroke-width:0.25;stroke-linecap:butt;stroke-linejoin:miter;stroke:rgb(19.607843%,49.411765%,61.176471%);stroke-opacity:1;stroke-miterlimit:4;" d="M 196.5 265.2 C 196.8 261.35 195.8 257.5 196.6 253.7 C 216.55 254.55 236.5 255.55 256.4 257.3 C 255.45 258.55 254.3 259.7 253.5 261.1 C 254.95 260.95 256.4 260.7 257.85 260.55 C 258.25 261.35 258.55 262.15 258.85 262.95 C 257.1 264.1 255.35 262.5 253.6 262.3 C 251.25 264.2 248.25 264.05 245.45 264.5 C 242.6 266.1 240.55 268.95 239.05 271.85 C 238.45 273.2 239.9 274.2 240.6 275.15 C 239.5 276.3 237.95 277 236.3 276.7 C 224.7 275.65 213.55 272.1 202 271 C 199.2 270.65 196.7 268 196.5 265.2 Z M 196.5 265.2 " transform="matrix(0.078125,0,0,0.078125,0,0)"/>
        <path style="fill-rule:nonzero;fill:rgb(16.862745%,46.27451%,58.431373%);fill-opacity:1;stroke-width:0.25;stroke-linecap:butt;stroke-linejoin:miter;stroke:rgb(16.862745%,46.27451%,58.431373%);stroke-opacity:1;stroke-miterlimit:4;" d="M 256.4 257.3 C 270.1 257.9 283.75 258.8 297.45 259.85 C 297.4 261.3 297.35 262.75 297.3 264.25 C 293.2 266.7 289.15 269.3 285.25 272.1 C 274.2 272.7 263.55 275.85 252.75 277.7 C 248.85 278.4 244.9 278.8 241.2 280.25 C 242 286.95 244.6 293.25 246.2 299.75 C 248.1 307.15 250.5 314.4 252.1 321.8 C 249.1 320.75 247.25 318.05 245.1 315.9 C 234.35 305 223.3 294.35 212.85 283.15 C 209.2 279.15 204.7 275.75 202 271 C 213.55 272.1 224.7 275.65 236.3 276.7 C 237.95 277 239.5 276.3 240.6 275.15 C 239.9 274.2 238.45 273.2 239.05 271.85 C 240.55 268.95 242.6 266.1 245.45 264.5 C 248.25 264.05 251.25 264.2 253.6 262.3 C 255.35 262.5 257.1 264.1 258.85 262.95 C 258.55 262.15 258.25 261.35 257.85 260.55 C 256.4 260.7 254.95 260.95 253.5 261.1 C 254.3 259.7 255.45 258.55 256.4 257.3 Z M 256.4 257.3 " transform="matrix(0.078125,0,0,0.078125,0,0)"/>
        <path style="fill-rule:nonzero;fill:rgb(46.666667%,62.745098%,66.666667%);fill-opacity:1;stroke-width:0.25;stroke-linecap:butt;stroke-linejoin:miter;stroke:rgb(46.666667%,62.745098%,66.666667%);stroke-opacity:1;stroke-miterlimit:4;" d="M 252.75 277.7 C 263.55 275.85 274.2 272.7 285.25 272.1 C 284.15 274.6 282.9 277.05 281.4 279.3 C 275.15 288.4 268.95 297.6 262.7 306.75 C 259.15 312.1 255.25 317.35 252.5 323.2 C 252.4 322.85 252.2 322.15 252.1 321.8 C 250.5 314.4 248.1 307.15 246.2 299.75 C 244.6 293.25 242 286.95 241.2 280.25 C 244.9 278.8 248.85 278.4 252.75 277.7 Z M 252.75 277.7 " transform="matrix(0.078125,0,0,0.078125,0,0)"/>
        <path style="fill-rule:nonzero;fill:rgb(61.176471%,57.647059%,39.607843%);fill-opacity:1;stroke-width:0.25;stroke-linecap:butt;stroke-linejoin:miter;stroke:rgb(61.176471%,57.647059%,39.607843%);stroke-opacity:1;stroke-miterlimit:4;" d="M 305.75 294.85 C 314.45 288.85 322.65 282 331.95 276.9 C 330.35 280.15 327.4 282.35 324.85 284.85 C 318 291 311.15 297.3 303.6 302.55 C 294.15 307.5 284.35 311.65 274.5 315.75 C 270 317.3 265.5 318.8 260.85 319.9 C 275.2 310.45 291.1 303.75 305.75 294.85 Z M 305.75 294.85 " transform="matrix(0.078125,0,0,0.078125,0,0)"/>
        <path style="fill-rule:nonzero;fill:rgb(13.333333%,38.823529%,52.156863%);fill-opacity:1;stroke-width:0.25;stroke-linecap:butt;stroke-linejoin:miter;stroke:rgb(13.333333%,38.823529%,52.156863%);stroke-opacity:1;stroke-miterlimit:4;" d="M 260.85 319.9 C 265.5 318.8 270 317.3 274.5 315.75 C 280.15 322.7 284.3 330.9 290.75 337.25 C 298.15 341.55 308.4 338.15 314.85 344.85 C 313.1 344.65 311.35 344.35 309.6 344.2 C 309.6 345 309.6 345.75 309.6 346.55 C 305.6 345 301.4 343.8 297.1 343.85 C 297.7 345.15 298.35 346.45 298.9 347.75 C 294.25 346.1 290.1 342.85 285.05 342.65 C 275.2 343.1 265.4 344.5 256.05 347.75 C 259 341.3 267.05 344 272.3 341.3 C 274.9 340.6 276.25 337.8 275.8 335.25 C 273.9 332.45 270.85 330.8 268.15 328.9 C 264.35 326.65 261 323.75 257.15 321.6 C 258.35 321 259.6 320.45 260.85 319.9 Z M 260.85 319.9 " transform="matrix(0.078125,0,0,0.078125,0,0)"/>
        <path style="fill-rule:nonzero;fill:rgb(2.352941%,16.862745%,30.980392%);fill-opacity:1;stroke-width:0.25;stroke-linecap:butt;stroke-linejoin:miter;stroke:rgb(2.352941%,16.862745%,30.980392%);stroke-opacity:1;stroke-miterlimit:4;" d="M 266.05 318.8 C 266.75 318.8 268.15 318.8 268.9 318.75 C 272.5 323.2 277.1 326.85 280.05 331.8 C 275.65 329.05 272.05 325.25 268.2 321.85 C 267.4 320.9 266.05 320.2 266.05 318.8 Z M 266.05 318.8 " transform="matrix(0.078125,0,0,0.078125,0,0)"/>
    </g>
</svg>